<svg width="156" height="61" viewBox="0 0 156 61" fill="none" xmlns="http://www.w3.org/2000/svg">
<path d="M121.918 4.65456C125.294 7.0531 123.236 15.9029 122.577 19.1285C121.177 26.5722 118.871 33.8506 116.154 40.8808C115.742 41.956 118.213 42.2868 118.624 41.2943C121.753 33.437 124.306 25.2489 125.541 16.8127C126.118 13.0908 127.435 6.14331 123.73 3.49664C122.824 2.91769 120.683 3.82748 121.918 4.65456Z" fill="black"/>
<path d="M134.132 38.3996C129.439 42.535 127.709 36.8281 127.545 32.8581C127.298 33.1062 127.133 33.3544 126.886 33.5198C130.015 32.5273 133.474 30.7904 134.956 27.7302C135.862 25.9933 135.779 23.9256 133.803 23.0985C127.792 20.5346 121.122 28.64 119.063 33.2717C118.569 34.3469 121.122 34.6777 121.534 33.6852C122.604 31.204 124.169 28.9708 126.227 27.234C127.545 26.1588 129.933 24.1738 131.827 24.4219C133.968 24.67 132.897 26.9858 132.074 28.061C130.509 30.2115 128.039 31.3694 125.568 32.1137C125.321 32.1965 124.91 32.4446 124.91 32.7754C124.992 35.7529 125.651 39.6402 128.533 41.129C131.333 42.6177 134.05 40.9635 136.191 39.144C137.261 38.3996 134.873 37.7379 134.132 38.3996Z" fill="black"/>
<path d="M141.351 26.1586C144.975 22.7676 147.033 26.8203 150.574 27.6473C151.727 27.8955 153.127 27.8955 154.115 27.1511C155.103 26.4894 156.42 24.0082 155.185 23.0157C154.691 22.6848 153.868 22.7675 153.374 23.0157C152.221 23.6773 151.233 25.4142 150.409 26.4067C148.927 28.1436 147.527 29.9632 146.045 31.7C144.645 33.3542 143.245 34.9257 141.763 36.4144C141.598 36.5798 137.975 39.5573 138.058 39.8055C138.963 40.7152 139.54 40.798 139.787 40.1363C139.787 40.0536 139.869 39.9709 139.869 39.8882C140.034 39.5573 140.199 39.3092 140.446 38.9784C141.187 38.0686 142.093 37.655 143.328 37.8205C145.633 38.0686 146.045 40.3017 147.857 41.2115C150.162 42.3694 152.715 40.6325 154.362 39.1438C155.35 38.3167 152.88 37.655 152.221 38.3167C150.327 40.0536 149.504 39.7227 147.939 38.1513C147.363 37.5723 146.621 37.0761 145.88 36.7453C144.398 36.0836 142.669 35.9182 141.104 36.4144C139.952 36.7452 136.164 39.2265 137.564 40.8807C140.693 44.768 153.209 25.2488 155.35 24.0909C154.774 24.0909 154.197 24.0909 153.538 24.0909C152.962 23.6773 153.374 25.0834 152.797 25.6623C151.397 27.1511 149.009 24.5871 147.857 23.7601C144.728 21.5269 141.928 22.933 139.375 25.3315C138.305 26.2413 140.693 26.8203 141.351 26.1586Z" fill="black"/>
<path d="M34.221 0.436437C29.9391 -0.390645 25.0807 -0.0598122 22.034 3.41393C19.3989 6.39143 18.8225 10.9404 20.4694 14.5796C22.281 18.6323 26.5629 21.1962 30.9272 21.1962C34.3033 21.1962 38.6676 19.3766 38.6676 15.4066C38.7499 10.2787 31.9153 7.30122 27.8804 6.30872C22.9398 5.15081 17.505 5.64706 12.8114 7.54935C2.43594 11.7675 -3.82225 24.0083 2.60063 34.1814C10.5057 46.7531 27.304 44.5199 37.5971 36.6627C38.5029 35.9183 36.1149 35.422 35.4562 35.9183C25.6571 43.362 9.35289 44.6027 3.75346 31.2866C-0.693157 20.7 7.12959 10.1133 17.505 7.71476C23.0221 6.39143 29.692 7.21852 33.974 11.2712C39.491 16.5645 32.7388 21.9406 26.9747 18.6323C23.2691 16.5645 21.3752 12.2637 22.1987 8.21101C23.3515 2.66956 28.3745 0.76727 33.4799 1.75977C34.7974 2.00789 35.8679 0.76727 34.221 0.436437Z" fill="black"/>
<path d="M35.9504 24.2564C35.2093 27.5647 32.7389 44.1891 40.4793 42.1214C47.9727 40.1364 51.8429 29.7978 52.9957 23.0985C53.1604 22.1887 50.6077 22.106 50.443 23.0985C49.3726 29.3016 46.4905 36.828 40.8087 40.1364C39.8206 40.7153 39.7382 41.0461 39.0795 40.4672C38.256 39.6401 38.009 37.407 37.8443 36.4145C37.1856 32.3618 37.5973 28.2264 38.5031 24.2564C38.6678 23.4293 36.1974 23.2639 35.9504 24.2564Z" fill="black"/>
<path d="M59.748 33.1063C63.0418 32.8582 67.159 32.0311 69.3 29.219C70.4528 27.7302 70.6175 25.7452 69.2176 24.4219C66.2532 21.5271 60.5714 23.0986 57.6894 25.1663C53.4074 28.1438 50.2783 35.6702 54.6426 39.9711C58.4305 43.6929 64.9357 42.6177 68.8882 39.8056C70.1234 38.9786 67.8178 38.2342 67.0767 38.8131C64.0299 40.9636 59.1716 42.2042 56.4542 38.8959C53.7368 35.6702 55.5484 30.2942 58.1011 27.5648C59.9127 25.5798 64.0299 23.1813 66.7473 24.9182C68.3118 25.9107 67.9825 27.8129 66.8296 29.0536C64.9357 31.1213 61.8066 31.6175 59.1716 31.7829C57.4423 31.8657 58.5951 33.189 59.748 33.1063Z" fill="black"/>
<path d="M80.087 15.2413C78.2754 20.7001 70.041 42.9486 81.7339 42.3696C83.2161 42.2869 83.2985 40.8809 81.7339 40.9636C73.8289 41.3771 81.3222 19.294 82.5574 15.6549C82.8867 14.5797 80.3341 14.4143 80.087 15.2413Z" fill="black"/>
<path d="M73.2521 24.7533C77.3694 23.8432 81.4866 24.2569 85.6862 24.5051C87.2508 24.5878 87.1684 23.1814 85.6862 23.0986C81.2396 22.7677 76.9577 22.4368 72.5934 23.3468C70.9465 23.6778 72.017 25.0015 73.2521 24.7533Z" fill="black"/>
<path d="M88.8977 23.8429C88.1566 28.1438 85.1922 40.3846 91.4504 41.956C100.261 44.1064 105.531 29.7979 106.19 23.5948C105.367 23.5948 104.543 23.5948 103.637 23.5948C102.649 34.0987 102.32 50.3923 92.1915 56.7608C89.3918 58.4977 83.2983 60.5654 81.4867 56.5127C80.0045 53.2871 83.71 50.475 86.1803 49.3171C91.0387 47.0012 102.567 46.0087 104.379 52.8735C104.626 53.7006 107.096 53.5352 106.849 52.46C104.955 45.3471 93.1796 45.5125 87.7449 47.0012C84.5334 47.911 80.4162 49.8133 79.0987 53.2044C78.1105 55.851 79.5104 58.2496 81.8984 59.4075C87.9919 62.3023 95.5676 57.836 99.1085 52.8735C104.79 44.6854 105.367 33.1062 106.272 23.5948C106.355 22.685 103.884 22.6023 103.72 23.5948C103.308 27.7302 101.991 31.7002 99.6025 35.174C97.9556 37.5725 93.0149 43.1967 90.9563 38.7304C88.98 34.595 90.7093 27.9783 91.4504 23.7602C91.6151 23.0158 89.0624 22.8504 88.8977 23.8429Z" fill="black"/>
<path d="M113.602 40.3018C113.602 41.4598 112.696 42.3695 111.131 42.3695C109.567 42.3695 108.743 41.4598 108.743 40.3018C108.743 39.1439 109.649 38.2341 111.131 38.2341C112.696 38.2341 113.602 39.1439 113.602 40.3018Z" fill="black"/>
</svg>
